<svg width="107" height="99" viewBox="0 0 107 99" fill="none" xmlns="http://www.w3.org/2000/svg">
<path fill-rule="evenodd" clip-rule="evenodd" d="M30.54 0C13.9715 0 0.540039 13.4315 0.540039 30V68.1158C0.540039 84.6843 13.9715 98.1158 30.5401 98.1158H76.4605C93.029 98.1158 106.46 84.6843 106.46 68.1158V30C106.46 13.4315 93.029 0 76.4605 0H30.54ZM86.3797 16H75.113L56.5821 37.3475L40.4232 16H17.0002L44.8706 52.4687L18.4827 82.7111H29.7495L50.2075 59.4363L67.9971 82.7111H90.8271L61.7708 44.3151L86.3797 16ZM77.3367 75.8917H71.1103L30.1942 22.3746H37.0136L77.3367 75.8917Z" fill="#1181F1"/>
</svg>
